<svg width="244" height="290" viewBox="0 0 244 290" fill="none" xmlns="http://www.w3.org/2000/svg">
<g clip-path="url(#clip0_132_1952)">
<path d="M185.5 0.5H58.5C26.4675 0.5 0.5 26.4675 0.5 58.5V231.5C0.5 263.533 26.4675 289.5 58.5 289.5H185.5C217.533 289.5 243.5 263.533 243.5 231.5V58.5C243.5 26.4675 217.533 0.5 185.5 0.5Z" fill="#1B2433" stroke="#2A3547"/>
<path d="M186 6H58C29.2812 6 6 29.2812 6 58V232C6 260.719 29.2812 284 58 284H186C214.719 284 238 260.719 238 232V58C238 29.2812 214.719 6 186 6Z" fill="#0F172A"/>
<path d="M180.504 16.2727V25H178.659V18.0241H178.608L176.609 19.277V17.6406L178.77 16.2727H180.504ZM186 25.1918C185.267 25.1889 184.637 25.0085 184.108 24.6506C183.583 24.2926 183.178 23.7741 182.894 23.0952C182.613 22.4162 182.473 21.5994 182.476 20.6449C182.476 19.6932 182.617 18.8821 182.898 18.2116C183.182 17.5412 183.587 17.0312 184.113 16.6818C184.641 16.3295 185.27 16.1534 186 16.1534C186.73 16.1534 187.358 16.3295 187.884 16.6818C188.412 17.0341 188.819 17.5455 189.103 18.2159C189.387 18.8835 189.527 19.6932 189.525 20.6449C189.525 21.6023 189.382 22.4205 189.098 23.0994C188.817 23.7784 188.414 24.2969 187.888 24.6548C187.363 25.0128 186.733 25.1918 186 25.1918ZM186 23.6619C186.5 23.6619 186.9 23.4105 187.198 22.9077C187.496 22.4048 187.644 21.6506 187.641 20.6449C187.641 19.983 187.573 19.4318 187.436 18.9915C187.303 18.5511 187.113 18.2202 186.865 17.9986C186.621 17.777 186.333 17.6662 186 17.6662C185.503 17.6662 185.105 17.9148 184.807 18.4119C184.509 18.9091 184.358 19.6534 184.355 20.6449C184.355 21.3153 184.422 21.875 184.556 22.3239C184.692 22.7699 184.884 23.1051 185.131 23.3295C185.378 23.5511 185.668 23.6619 186 23.6619ZM191.918 23.9858C191.637 23.9858 191.396 23.8864 191.194 23.6875C190.995 23.4886 190.896 23.2472 190.896 22.9631C190.896 22.6847 190.995 22.446 191.194 22.2472C191.396 22.0483 191.637 21.9489 191.918 21.9489C192.191 21.9489 192.43 22.0483 192.634 22.2472C192.839 22.446 192.941 22.6847 192.941 22.9631C192.941 23.1506 192.893 23.3224 192.796 23.4787C192.702 23.6321 192.579 23.7557 192.425 23.8494C192.272 23.9403 192.103 23.9858 191.918 23.9858ZM191.918 19.7031C191.637 19.7031 191.396 19.6037 191.194 19.4048C190.995 19.206 190.896 18.9645 190.896 18.6804C190.896 18.402 190.995 18.1648 191.194 17.9688C191.396 17.7699 191.637 17.6705 191.918 17.6705C192.191 17.6705 192.43 17.7699 192.634 17.9688C192.839 18.1648 192.941 18.402 192.941 18.6804C192.941 18.8707 192.893 19.044 192.796 19.2003C192.702 19.3537 192.579 19.4759 192.425 19.5668C192.272 19.6577 192.103 19.7031 191.918 19.7031ZM197.836 25.1918C197.103 25.1889 196.473 25.0085 195.944 24.6506C195.419 24.2926 195.014 23.7741 194.73 23.0952C194.449 22.4162 194.309 21.5994 194.312 20.6449C194.312 19.6932 194.453 18.8821 194.734 18.2116C195.018 17.5412 195.423 17.0312 195.949 16.6818C196.477 16.3295 197.106 16.1534 197.836 16.1534C198.566 16.1534 199.194 16.3295 199.72 16.6818C200.248 17.0341 200.654 17.5455 200.939 18.2159C201.223 18.8835 201.363 19.6932 201.36 20.6449C201.36 21.6023 201.218 22.4205 200.934 23.0994C200.653 23.7784 200.25 24.2969 199.724 24.6548C199.199 25.0128 198.569 25.1918 197.836 25.1918ZM197.836 23.6619C198.336 23.6619 198.735 23.4105 199.034 22.9077C199.332 22.4048 199.48 21.6506 199.477 20.6449C199.477 19.983 199.409 19.4318 199.272 18.9915C199.139 18.5511 198.949 18.2202 198.701 17.9986C198.457 17.777 198.169 17.6662 197.836 17.6662C197.339 17.6662 196.941 17.9148 196.643 18.4119C196.345 18.9091 196.194 19.6534 196.191 20.6449C196.191 21.3153 196.258 21.875 196.392 22.3239C196.528 22.7699 196.72 23.1051 196.967 23.3295C197.214 23.5511 197.504 23.6619 197.836 23.6619ZM205.834 16.1534C206.283 16.1534 206.714 16.2287 207.129 16.3793C207.547 16.5298 207.919 16.7699 208.246 17.0994C208.575 17.429 208.835 17.8665 209.026 18.4119C209.219 18.9545 209.317 19.6207 209.32 20.4105C209.32 21.152 209.236 21.8139 209.068 22.3963C208.903 22.9759 208.666 23.4688 208.357 23.875C208.047 24.2812 207.673 24.5909 207.236 24.804C206.798 25.0142 206.31 25.1193 205.77 25.1193C205.188 25.1193 204.673 25.0071 204.227 24.7827C203.781 24.5554 203.422 24.2472 203.149 23.858C202.879 23.4659 202.716 23.0256 202.659 22.5369H204.479C204.55 22.8551 204.699 23.1023 204.926 23.2784C205.153 23.4517 205.435 23.5384 205.77 23.5384C206.338 23.5384 206.77 23.2912 207.065 22.7969C207.361 22.2997 207.51 21.6193 207.513 20.7557H207.453C207.322 21.0114 207.146 21.2315 206.925 21.4162C206.703 21.598 206.449 21.7386 206.162 21.8381C205.878 21.9375 205.575 21.9872 205.254 21.9872C204.74 21.9872 204.281 21.8665 203.878 21.625C203.474 21.3835 203.156 21.0511 202.923 20.6278C202.69 20.2045 202.574 19.7216 202.574 19.179C202.571 18.5938 202.706 18.0724 202.979 17.6151C203.251 17.1577 203.632 16.7997 204.121 16.5412C204.612 16.2798 205.183 16.1506 205.834 16.1534ZM205.847 17.6023C205.56 17.6023 205.304 17.6705 205.08 17.8068C204.858 17.9432 204.682 18.1264 204.551 18.3565C204.423 18.5866 204.361 18.8437 204.364 19.1278C204.364 19.4148 204.426 19.6733 204.551 19.9034C204.679 20.1307 204.852 20.3125 205.071 20.4489C205.293 20.5824 205.545 20.6491 205.83 20.6491C206.043 20.6491 206.24 20.6094 206.422 20.5298C206.604 20.4503 206.761 20.3409 206.895 20.2017C207.031 20.0597 207.138 19.8963 207.214 19.7116C207.291 19.527 207.33 19.331 207.33 19.1236C207.327 18.848 207.261 18.5952 207.134 18.3651C207.006 18.1349 206.83 17.9503 206.605 17.8111C206.381 17.6719 206.128 17.6023 205.847 17.6023Z" fill="#F8FAFC"/>
<rect x="102" y="33.7" width="40" height="8.66"/>
<path d="M133 92H111C98.8497 92 89 101.85 89 114V136C89 148.15 98.8497 158 111 158H133C145.15 158 155 148.15 155 136V114C155 101.85 145.15 92 133 92Z" fill="#13233E" stroke="#4E73B8"/>
<path d="M104 131.5C104 129.567 102.433 128 100.5 128C98.567 128 97 129.567 97 131.5V136.5C97 138.433 98.567 140 100.5 140C102.433 140 104 138.433 104 136.5V131.5Z" fill="#3478F6"/>
<path d="M115 121.5C115 119.567 113.433 118 111.5 118C109.567 118 108 119.567 108 121.5V136.5C108 138.433 109.567 140 111.5 140C113.433 140 115 138.433 115 136.5V121.5Z" fill="#3478F6"/>
<path d="M126 113.5C126 111.567 124.433 110 122.5 110C120.567 110 119 111.567 119 113.5V136.5C119 138.433 120.567 140 122.5 140C124.433 140 126 138.433 126 136.5V113.5Z" fill="#3478F6"/>
<path d="M137 125.5C137 123.567 135.433 122 133.5 122C131.567 122 130 123.567 130 125.5V136.5C130 138.433 131.567 140 133.5 140C135.433 140 137 138.433 137 136.5V125.5Z" fill="#3478F6"/>
<path d="M148 119.5C148 117.567 146.433 116 144.5 116C142.567 116 141 117.567 141 119.5V136.5C141 138.433 142.567 140 144.5 140C146.433 140 148 138.433 148 136.5V119.5Z" fill="#3478F6"/>
<path d="M75.7163 180.364C75.7163 181.131 75.5778 181.794 75.3008 182.352C75.0238 182.911 74.6438 183.342 74.1609 183.645C73.6779 183.948 73.1263 184.099 72.506 184.099C71.8858 184.099 71.3342 183.948 70.8512 183.645C70.3683 183.342 69.9883 182.911 69.7113 182.352C69.4343 181.794 69.2958 181.131 69.2958 180.364C69.2958 179.597 69.4343 178.934 69.7113 178.375C69.9883 177.816 70.3683 177.385 70.8512 177.082C71.3342 176.779 71.8858 176.628 72.506 176.628C73.1263 176.628 73.6779 176.779 74.1609 177.082C74.6438 177.385 75.0238 177.816 75.3008 178.375C75.5778 178.934 75.7163 179.597 75.7163 180.364ZM74.864 180.364C74.864 179.734 74.7586 179.202 74.5479 178.769C74.3396 178.336 74.0567 178.008 73.6992 177.786C73.3441 177.563 72.9464 177.452 72.506 177.452C72.0657 177.452 71.6668 177.563 71.3093 177.786C70.9542 178.008 70.6713 178.336 70.4606 178.769C70.2522 179.202 70.1481 179.734 70.1481 180.364C70.1481 180.993 70.2522 181.525 70.4606 181.958C70.6713 182.391 70.9542 182.719 71.3093 182.942C71.6668 183.164 72.0657 183.276 72.506 183.276C72.9464 183.276 73.3441 183.164 73.6992 182.942C74.0567 182.719 74.3396 182.391 74.5479 181.958C74.7586 181.525 74.864 180.993 74.864 180.364ZM77.0835 186.045V178.545H77.8931V179.412H77.9925C78.0541 179.317 78.1393 179.196 78.2482 179.05C78.3595 178.901 78.5181 178.768 78.7241 178.652C78.9324 178.534 79.2141 178.474 79.5692 178.474C80.0285 178.474 80.4334 178.589 80.7837 178.819C81.1341 179.049 81.4076 179.374 81.604 179.795C81.8005 180.217 81.8988 180.714 81.8988 181.287C81.8988 181.865 81.8005 182.365 81.604 182.789C81.4076 183.21 81.1353 183.537 80.7873 183.769C80.4393 183.999 80.038 184.114 79.5835 184.114C79.2331 184.114 78.9525 184.056 78.7418 183.94C78.5311 183.821 78.369 183.687 78.2553 183.538C78.1417 183.387 78.0541 183.261 77.9925 183.162H77.9215V186.045H77.0835ZM77.9073 181.273C77.9073 181.685 77.9677 182.048 78.0884 182.363C78.2092 182.675 78.3855 182.92 78.6175 183.098C78.8496 183.273 79.1336 183.361 79.4698 183.361C79.8202 183.361 80.1126 183.268 80.3469 183.084C80.5837 182.897 80.7612 182.646 80.8796 182.331C81.0004 182.014 81.0607 181.661 81.0607 181.273C81.0607 180.889 81.0015 180.544 80.8832 180.236C80.7672 179.926 80.5908 179.681 80.354 179.501C80.1197 179.318 79.8249 179.227 79.4698 179.227C79.1289 179.227 78.8424 179.314 78.6104 179.487C78.3784 179.657 78.2032 179.896 78.0849 180.204C77.9665 180.509 77.9073 180.866 77.9073 181.273ZM85.4641 184.114C84.9386 184.114 84.4852 183.998 84.104 183.766C83.7253 183.531 83.4329 183.205 83.2269 182.786C83.0233 182.364 82.9215 181.874 82.9215 181.315C82.9215 180.757 83.0233 180.264 83.2269 179.838C83.4329 179.41 83.7193 179.076 84.0863 178.837C84.4556 178.595 84.8865 178.474 85.3789 178.474C85.663 178.474 85.9435 178.522 86.2205 178.616C86.4975 178.711 86.7496 178.865 86.9769 179.078C87.2042 179.289 87.3853 179.568 87.5202 179.916C87.6552 180.264 87.7227 180.693 87.7227 181.202V181.557H83.5181V180.832H86.8704C86.8704 180.525 86.8088 180.25 86.6857 180.009C86.565 179.767 86.3922 179.576 86.1673 179.437C85.9447 179.297 85.6819 179.227 85.3789 179.227C85.0451 179.227 84.7563 179.31 84.5124 179.476C84.271 179.639 84.0851 179.852 83.9549 180.115C83.8247 180.378 83.7596 180.66 83.7596 180.96V181.443C83.7596 181.855 83.8306 182.204 83.9727 182.491C84.1171 182.775 84.3171 182.991 84.5728 183.141C84.8285 183.287 85.1256 183.361 85.4641 183.361C85.6843 183.361 85.8832 183.33 86.0607 183.268C86.2406 183.205 86.3957 183.11 86.5259 182.984C86.6561 182.857 86.7567 182.698 86.8278 182.509L87.6374 182.736C87.5522 183.01 87.409 183.252 87.2077 183.46C87.0065 183.666 86.7579 183.827 86.462 183.943C86.1661 184.057 85.8335 184.114 85.4641 184.114ZM89.8356 180.719V184H88.9975V178.545H89.8072V179.398H89.8782C90.006 179.121 90.2002 178.898 90.4606 178.73C90.721 178.56 91.0572 178.474 91.4691 178.474C91.8384 178.474 92.1616 178.55 92.4386 178.702C92.7156 178.851 92.931 179.078 93.0849 179.384C93.2388 179.687 93.3157 180.07 93.3157 180.534V184H92.4776V180.591C92.4776 180.162 92.3664 179.829 92.1438 179.589C91.9213 179.348 91.6159 179.227 91.2276 179.227C90.9601 179.227 90.721 179.285 90.5103 179.401C90.302 179.517 90.1374 179.687 90.0167 179.909C89.896 180.132 89.8356 180.402 89.8356 180.719ZM94.8471 184V178.545H95.6852V184H94.8471ZM95.2733 177.636C95.1099 177.636 94.969 177.581 94.8507 177.469C94.7347 177.358 94.6767 177.224 94.6767 177.068C94.6767 176.912 94.7347 176.778 94.8507 176.667C94.969 176.556 95.1099 176.5 95.2733 176.5C95.4366 176.5 95.5763 176.556 95.6923 176.667C95.8107 176.778 95.8699 176.912 95.8699 177.068C95.8699 177.224 95.8107 177.358 95.6923 177.469C95.5763 177.581 95.4366 177.636 95.2733 177.636ZM98.0582 180.719V184H97.2202V178.545H98.0298V179.398H98.1009C98.2287 179.121 98.4228 178.898 98.6832 178.73C98.9437 178.56 99.2798 178.474 99.6918 178.474C100.061 178.474 100.384 178.55 100.661 178.702C100.938 178.851 101.154 179.078 101.308 179.384C101.461 179.687 101.538 180.07 101.538 180.534V184H100.7V180.591C100.7 180.162 100.589 179.829 100.366 179.589C100.144 179.348 99.8385 179.227 99.4503 179.227C99.1828 179.227 98.9437 179.285 98.733 179.401C98.5246 179.517 98.3601 179.687 98.2393 179.909C98.1186 180.132 98.0582 180.402 98.0582 180.719ZM105.271 186.159C104.867 186.159 104.519 186.107 104.227 186.003C103.936 185.901 103.694 185.766 103.499 185.598C103.308 185.432 103.155 185.255 103.041 185.065L103.709 184.597C103.785 184.696 103.881 184.81 103.997 184.938C104.113 185.068 104.271 185.18 104.472 185.275C104.676 185.372 104.942 185.42 105.271 185.42C105.712 185.42 106.075 185.314 106.362 185.101C106.648 184.888 106.791 184.554 106.791 184.099V182.991H106.72C106.659 183.091 106.571 183.214 106.458 183.361C106.346 183.505 106.185 183.634 105.975 183.748C105.766 183.859 105.485 183.915 105.129 183.915C104.689 183.915 104.294 183.811 103.943 183.602C103.595 183.394 103.32 183.091 103.116 182.693C102.915 182.295 102.814 181.812 102.814 181.244C102.814 180.686 102.912 180.199 103.109 179.785C103.305 179.368 103.579 179.046 103.929 178.819C104.28 178.589 104.684 178.474 105.144 178.474C105.499 178.474 105.78 178.534 105.989 178.652C106.2 178.768 106.36 178.901 106.472 179.05C106.585 179.196 106.673 179.317 106.735 179.412H106.82V178.545H107.629V184.156C107.629 184.625 107.523 185.006 107.31 185.3C107.099 185.596 106.815 185.812 106.458 185.95C106.102 186.089 105.707 186.159 105.271 186.159ZM105.243 183.162C105.579 183.162 105.863 183.085 106.095 182.931C106.327 182.777 106.504 182.556 106.624 182.267C106.745 181.978 106.806 181.633 106.806 181.23C106.806 180.837 106.746 180.49 106.628 180.19C106.51 179.889 106.334 179.653 106.102 179.483C105.87 179.312 105.584 179.227 105.243 179.227C104.888 179.227 104.592 179.317 104.355 179.497C104.121 179.677 103.945 179.919 103.826 180.222C103.71 180.525 103.652 180.861 103.652 181.23C103.652 181.609 103.711 181.944 103.83 182.235C103.95 182.524 104.128 182.751 104.362 182.917C104.599 183.08 104.893 183.162 105.243 183.162ZM116.067 178.545C116.024 178.186 115.852 177.906 115.548 177.707C115.245 177.509 114.874 177.409 114.433 177.409C114.111 177.409 113.83 177.461 113.588 177.565C113.349 177.67 113.162 177.813 113.027 177.995C112.895 178.177 112.828 178.384 112.828 178.616C112.828 178.811 112.874 178.978 112.967 179.117C113.061 179.254 113.182 179.369 113.329 179.462C113.476 179.552 113.63 179.626 113.791 179.685C113.952 179.742 114.1 179.788 114.235 179.824L114.973 180.023C115.163 180.072 115.373 180.141 115.605 180.229C115.84 180.316 116.063 180.436 116.276 180.587C116.492 180.737 116.669 180.928 116.809 181.163C116.949 181.397 117.019 181.685 117.019 182.026C117.019 182.419 116.916 182.774 116.71 183.091C116.506 183.408 116.208 183.66 115.815 183.847C115.424 184.034 114.95 184.128 114.391 184.128C113.87 184.128 113.419 184.044 113.038 183.876C112.659 183.708 112.361 183.473 112.143 183.173C111.927 182.872 111.806 182.523 111.777 182.125H112.686C112.71 182.4 112.802 182.627 112.963 182.807C113.127 182.984 113.333 183.117 113.581 183.205C113.832 183.29 114.102 183.332 114.391 183.332C114.727 183.332 115.029 183.278 115.296 183.169C115.564 183.058 115.776 182.904 115.932 182.707C116.088 182.509 116.166 182.277 116.166 182.011C116.166 181.77 116.099 181.573 115.964 181.422C115.829 181.27 115.651 181.147 115.431 181.053C115.211 180.958 114.973 180.875 114.718 180.804L113.823 180.548C113.254 180.385 112.805 180.152 112.473 179.849C112.142 179.546 111.976 179.149 111.976 178.659C111.976 178.252 112.086 177.897 112.306 177.594C112.529 177.288 112.827 177.052 113.201 176.884C113.578 176.713 113.998 176.628 114.462 176.628C114.931 176.628 115.347 176.712 115.712 176.88C116.076 177.046 116.365 177.273 116.578 177.562C116.794 177.851 116.907 178.179 116.919 178.545H116.067ZM120.569 184.114C120.076 184.114 119.644 183.996 119.273 183.762C118.903 183.528 118.615 183.2 118.406 182.778C118.2 182.357 118.097 181.865 118.097 181.301C118.097 180.733 118.2 180.237 118.406 179.813C118.615 179.389 118.903 179.06 119.273 178.826C119.644 178.592 120.076 178.474 120.569 178.474C121.061 178.474 121.492 178.592 121.862 178.826C122.233 179.06 122.522 179.389 122.728 179.813C122.936 180.237 123.04 180.733 123.04 181.301C123.04 181.865 122.936 182.357 122.728 182.778C122.522 183.2 122.233 183.528 121.862 183.762C121.492 183.996 121.061 184.114 120.569 184.114ZM120.569 183.361C120.943 183.361 121.251 183.265 121.492 183.073C121.734 182.881 121.912 182.629 122.028 182.317C122.144 182.004 122.202 181.666 122.202 181.301C122.202 180.937 122.144 180.597 122.028 180.282C121.912 179.967 121.734 179.713 121.492 179.518C121.251 179.324 120.943 179.227 120.569 179.227C120.195 179.227 119.887 179.324 119.646 179.518C119.404 179.713 119.225 179.967 119.109 180.282C118.993 180.597 118.935 180.937 118.935 181.301C118.935 181.666 118.993 182.004 119.109 182.317C119.225 182.629 119.404 182.881 119.646 183.073C119.887 183.265 120.195 183.361 120.569 183.361ZM127.757 181.77V178.545H128.595V184H127.757V183.077H127.7C127.573 183.354 127.374 183.589 127.104 183.783C126.834 183.975 126.493 184.071 126.081 184.071C125.74 184.071 125.437 183.996 125.172 183.847C124.907 183.696 124.699 183.469 124.547 183.165C124.396 182.86 124.32 182.475 124.32 182.011V178.545H125.158V181.955C125.158 182.352 125.269 182.67 125.492 182.906C125.717 183.143 126.003 183.261 126.351 183.261C126.559 183.261 126.771 183.208 126.987 183.102C127.204 182.995 127.387 182.832 127.534 182.612C127.683 182.391 127.757 182.111 127.757 181.77ZM130.968 180.719V184H130.13V178.545H130.94V179.398H131.011C131.139 179.121 131.333 178.898 131.593 178.73C131.854 178.56 132.19 178.474 132.602 178.474C132.971 178.474 133.294 178.55 133.571 178.702C133.848 178.851 134.064 179.078 134.218 179.384C134.372 179.687 134.449 180.07 134.449 180.534V184H133.61V180.591C133.61 180.162 133.499 179.829 133.277 179.589C133.054 179.348 132.749 179.227 132.36 179.227C132.093 179.227 131.854 179.285 131.643 179.401C131.435 179.517 131.27 179.687 131.15 179.909C131.029 180.132 130.968 180.402 130.968 180.719ZM138.04 184.114C137.585 184.114 137.184 183.999 136.836 183.769C136.488 183.537 136.215 183.21 136.019 182.789C135.823 182.365 135.724 181.865 135.724 181.287C135.724 180.714 135.823 180.217 136.019 179.795C136.215 179.374 136.489 179.049 136.839 178.819C137.19 178.589 137.595 178.474 138.054 178.474C138.409 178.474 138.689 178.534 138.895 178.652C139.104 178.768 139.262 178.901 139.371 179.05C139.483 179.196 139.569 179.317 139.631 179.412H139.702V176.727H140.54V184H139.73V183.162H139.631C139.569 183.261 139.481 183.387 139.368 183.538C139.254 183.687 139.092 183.821 138.881 183.94C138.671 184.056 138.39 184.114 138.04 184.114ZM138.153 183.361C138.489 183.361 138.773 183.273 139.006 183.098C139.238 182.92 139.414 182.675 139.535 182.363C139.655 182.048 139.716 181.685 139.716 181.273C139.716 180.866 139.657 180.509 139.538 180.204C139.42 179.896 139.245 179.657 139.013 179.487C138.781 179.314 138.494 179.227 138.153 179.227C137.798 179.227 137.502 179.318 137.265 179.501C137.031 179.681 136.855 179.926 136.736 180.236C136.62 180.544 136.562 180.889 136.562 181.273C136.562 181.661 136.622 182.014 136.74 182.331C136.861 182.646 137.038 182.897 137.273 183.084C137.509 183.268 137.803 183.361 138.153 183.361ZM143.626 184L141.637 176.727H142.532L144.052 182.651H144.123L145.671 176.727H146.665L148.214 182.651H148.285L149.805 176.727H150.699L148.711 184H147.802L146.197 178.205H146.14L144.535 184H143.626ZM152.78 184.128C152.435 184.128 152.121 184.063 151.839 183.933C151.558 183.8 151.334 183.609 151.168 183.361C151.002 183.11 150.92 182.807 150.92 182.452C150.92 182.139 150.981 181.886 151.104 181.692C151.227 181.495 151.392 181.341 151.598 181.23C151.804 181.119 152.031 181.036 152.28 180.982C152.531 180.925 152.783 180.88 153.036 180.847C153.367 180.804 153.636 180.772 153.842 180.751C154.05 180.727 154.202 180.688 154.297 180.634C154.394 180.579 154.442 180.484 154.442 180.349V180.321C154.442 179.971 154.346 179.698 154.155 179.504C153.965 179.31 153.678 179.213 153.292 179.213C152.892 179.213 152.578 179.301 152.351 179.476C152.123 179.651 151.964 179.838 151.871 180.037L151.076 179.753C151.218 179.421 151.407 179.163 151.644 178.979C151.883 178.792 152.144 178.661 152.425 178.588C152.709 178.512 152.989 178.474 153.263 178.474C153.439 178.474 153.64 178.496 153.867 178.538C154.097 178.579 154.318 178.663 154.531 178.79C154.747 178.918 154.925 179.111 155.067 179.369C155.209 179.627 155.28 179.973 155.28 180.406V184H154.442V183.261H154.4C154.343 183.38 154.248 183.506 154.116 183.641C153.983 183.776 153.807 183.891 153.586 183.986C153.366 184.08 153.098 184.128 152.78 184.128ZM152.908 183.375C153.24 183.375 153.519 183.31 153.746 183.18C153.976 183.049 154.149 182.881 154.265 182.675C154.383 182.469 154.442 182.253 154.442 182.026V181.259C154.407 181.301 154.329 181.34 154.208 181.376C154.09 181.409 153.952 181.438 153.796 181.464C153.642 181.488 153.492 181.509 153.345 181.528C153.201 181.545 153.083 181.559 152.993 181.571C152.776 181.599 152.572 181.646 152.383 181.71C152.196 181.771 152.044 181.865 151.928 181.99C151.814 182.113 151.758 182.281 151.758 182.494C151.758 182.786 151.865 183.006 152.081 183.155C152.299 183.302 152.574 183.375 152.908 183.375ZM161.075 178.545L159.058 184H158.206L156.189 178.545H157.098L158.603 182.892H158.66L160.166 178.545H161.075ZM164.273 184.114C163.747 184.114 163.294 183.998 162.913 183.766C162.534 183.531 162.241 183.205 162.036 182.786C161.832 182.364 161.73 181.874 161.73 181.315C161.73 180.757 161.832 180.264 162.036 179.838C162.241 179.41 162.528 179.076 162.895 178.837C163.264 178.595 163.695 178.474 164.188 178.474C164.472 178.474 164.752 178.522 165.029 178.616C165.306 178.711 165.558 178.865 165.786 179.078C166.013 179.289 166.194 179.568 166.329 179.916C166.464 180.264 166.531 180.693 166.531 181.202V181.557H162.327V180.832H165.679C165.679 180.525 165.617 180.25 165.494 180.009C165.374 179.767 165.201 179.576 164.976 179.437C164.753 179.297 164.491 179.227 164.188 179.227C163.854 179.227 163.565 179.31 163.321 179.476C163.08 179.639 162.894 179.852 162.763 180.115C162.633 180.378 162.568 180.66 162.568 180.96V181.443C162.568 181.855 162.639 182.204 162.781 182.491C162.926 182.775 163.126 182.991 163.381 183.141C163.637 183.287 163.934 183.361 164.273 183.361C164.493 183.361 164.692 183.33 164.869 183.268C165.049 183.205 165.204 183.11 165.335 182.984C165.465 182.857 165.565 182.698 165.636 182.509L166.446 182.736C166.361 183.01 166.218 183.252 166.016 183.46C165.815 183.666 165.567 183.827 165.271 183.943C164.975 184.057 164.642 184.114 164.273 184.114ZM168.417 184.057C168.242 184.057 168.091 183.994 167.966 183.869C167.84 183.743 167.778 183.593 167.778 183.418C167.778 183.242 167.84 183.092 167.966 182.967C168.091 182.841 168.242 182.778 168.417 182.778C168.592 182.778 168.742 182.841 168.868 182.967C168.993 183.092 169.056 183.242 169.056 183.418C169.056 183.534 169.027 183.64 168.967 183.737C168.911 183.834 168.834 183.912 168.737 183.972C168.642 184.028 168.535 184.057 168.417 184.057ZM171.171 184.057C170.996 184.057 170.845 183.994 170.72 183.869C170.594 183.743 170.532 183.593 170.532 183.418C170.532 183.242 170.594 183.092 170.72 182.967C170.845 182.841 170.996 182.778 171.171 182.778C171.346 182.778 171.496 182.841 171.622 182.967C171.747 183.092 171.81 183.242 171.81 183.418C171.81 183.534 171.78 183.64 171.721 183.737C171.664 183.834 171.587 183.912 171.49 183.972C171.396 184.028 171.289 184.057 171.171 184.057ZM173.925 184.057C173.75 184.057 173.599 183.994 173.474 183.869C173.348 183.743 173.286 183.593 173.286 183.418C173.286 183.242 173.348 183.092 173.474 182.967C173.599 182.841 173.75 182.778 173.925 182.778C174.1 182.778 174.25 182.841 174.376 182.967C174.501 183.092 174.564 183.242 174.564 183.418C174.564 183.534 174.534 183.64 174.475 183.737C174.418 183.834 174.341 183.912 174.244 183.972C174.15 184.028 174.043 184.057 173.925 184.057Z" fill="#94A3B8"/>
</g>
<defs>
<clipPath id="clip0_132_1952">
<rect width="244" height="290" fill="white"/>
</clipPath>
</defs>
</svg>
